<svg xmlns="http://www.w3.org/2000/svg" width="512" height="512" viewBox="0 0 512 512"><rect width="512" height="256" fill="#16306b"/><rect y="256" width="512" height="256" fill="#f59e42"/><path d="M 240.1 259.2 L 240.2 258.4 L 240.3 257.6 L 240.4 257.0 L 240.7 256.3 L 241.0 255.7 L 241.3 255.1 L 241.7 254.6 L 242.2 254.1 L 242.6 253.6 L 243.2 253.2 L 243.8 252.8 L 244.4 252.4 L 245.1 252.1 L 245.8 251.9 L 246.5 251.7 L 247.3 251.6 L 248.0 251.5 L 248.8 251.5 L 249.6 251.6 L 250.5 251.7 L 251.3 251.8 L 252.1 252.1 L 253.0 252.4 L 253.8 252.7 L 254.6 253.2 L 255.4 253.7 L 256.2 254.2 L 257.0 254.8 L 257.7 255.5 L 258.5 256.3 L 259.1 257.1 L 259.8 257.9 L 260.4 258.9 L 260.9 259.8 L 261.5 260.9 L 261.9 261.9 L 262.3 263.0 L 262.6 264.2 L 262.9 265.4 L 263.1 266.7 L 263.3 267.9 L 263.3 269.2 L 263.3 270.5 L 263.3 271.9 L 263.1 273.3 L 262.9 274.6 L 262.6 276.0 L 262.2 277.4 L 261.7 278.8 L 261.1 280.2 L 260.5 281.5 L 259.8 282.9 L 258.9 284.2 L 258.0 285.5 L 257.1 286.8 L 256.0 288.1 L 254.9 289.3 L 253.6 290.4 L 252.4 291.5 L 251.0 292.6 L 249.5 293.6 L 248.0 294.5 L 246.4 295.4 L 244.8 296.2 L 243.1 296.9 L 241.3 297.5 L 239.5 298.0 L 237.7 298.5 L 235.7 298.9 L 233.8 299.2 L 231.8 299.3 L 229.8 299.4 L 227.8 299.4 L 225.7 299.3 L 223.6 299.0 L 221.5 298.7 L 219.5 298.2 L 217.4 297.7 L 215.3 297.0 L 213.2 296.2 L 211.2 295.3 L 209.2 294.3 L 207.2 293.2 L 205.2 291.9 L 203.3 290.6 L 201.5 289.2 L 199.7 287.6 L 197.9 285.9 L 196.3 284.2 L 194.7 282.3 L 193.2 280.4 L 191.7 278.3 L 190.4 276.2 L 189.2 274.0 L 188.0 271.7 L 187.0 269.3 L 186.0 266.9 L 185.2 264.4 L 184.5 261.8 L 183.9 259.2 L 183.5 256.5 L 183.2 253.8 L 183.0 251.0 L 182.9 248.3 L 183.0 245.5 L 183.2 242.6 L 183.5 239.8 L 184.0 237.0 L 184.7 234.1 L 185.5 231.3 L 186.4 228.5 L 187.5 225.8 L 188.7 223.0 L 190.0 220.3 L 191.5 217.7 L 193.2 215.1 L 194.9 212.6 L 196.9 210.1 L 198.9 207.7 L 201.1 205.4 L 203.4 203.2 L 205.8 201.1 L 208.3 199.1 L 211.0 197.2 L 213.7 195.4 L 216.6 193.8 L 219.5 192.3 L 222.6 190.9 L 225.7 189.6 L 228.9 188.5 L 232.2 187.6 L 235.6 186.8 L 239.0 186.1 L 242.4 185.7 L 245.9 185.3 L 249.5 185.2 L 253.0 185.2 L 256.6 185.4 L 260.2 185.8 L 263.8 186.3 L 267.4 187.1 L 270.9 188.0 L 274.5 189.0 L 278.0 190.3 L 281.5 191.7 L 284.9 193.3 L 288.2 195.1 L 291.5 197.1 L 294.7 199.2 L 297.8 201.5 L 300.8 203.9 L 303.8 206.5 L 306.6 209.3 L 309.3 212.2 L 311.8 215.2 L 314.3 218.4 L 316.5 221.7 L 318.7 225.2 L 320.7 228.7 L 322.5 232.4 L 324.1 236.2 L 325.6 240.1 L 326.9 244.0 L 328.0 248.1 L 328.9 252.2 L 329.7 256.4 L 330.2 260.6 L 330.5 264.9 L 330.6 269.2 L 330.6 273.5 L 330.3 277.8 L 329.8 282.2 L 329.1 286.5 L 328.1 290.9 L 327.0 295.2 L 325.7 299.4 L 324.1 303.6 L 322.3 307.8 L 320.4 311.9 L 318.2 315.9 L 315.8 319.8 L 313.3 323.6 L 310.5 327.4 L 307.5 331.0 L 304.4 334.4 L 301.1 337.8 L 297.6 340.9 L 293.9 344.0 L 290.1 346.8 L 286.2 349.5 L 282.1 352.1 L 277.8 354.4 L 273.5 356.5 L 269.0 358.5 L 264.4 360.2 L 259.7 361.7 L 254.9 363.0 L 250.0 364.1 L 245.1 364.9 L 240.1 365.5 L 235.1 365.9 L 230.0 366.0 L 224.9 365.9 L 219.8 365.5 L 214.7 364.9 L 209.6 364.1 L 204.6 363.0 L 199.5 361.7 L 194.6 360.1 L 189.6 358.3 L 184.8 356.2 L 180.0 353.9 L 175.3 351.4 L 170.8 348.6 L 166.3 345.6 L 162.0 342.4 L 157.8 338.9 L 153.8 335.3 L 149.9 331.4 L 146.2 327.4 L 142.7 323.2 L 139.4 318.8 L 136.3 314.2 L 133.3 309.4 L 130.7 304.5 L 128.2 299.5 L 125.9 294.3 L 123.9 289.0 L 122.2 283.6 L 120.7 278.1 L 119.5 272.5 L 118.5 266.8 L 117.8 261.1 L 117.3 255.3 L 117.2 249.5 L 117.3 243.7 L 117.7 237.8 L 118.4 232.0 L 119.3 226.1 L 120.5 220.3 L 122.1 214.6 L 123.8 208.9 L 125.9 203.2 L 128.3 197.7 L 130.9 192.2 L 133.7 186.9 L 136.9 181.7 L 140.3 176.6 L 143.9 171.6 L 147.8 166.9 L 151.9 162.3 L 156.3 157.8 L 160.9 153.6 L 165.7 149.6 L 170.7 145.8 L 175.8 142.2 L 181.2 138.9 L 186.8 135.8 L 192.5 133.0 L 198.3 130.5 L 204.3 128.2 L 210.4 126.2 L 216.6 124.4 L 222.9 123.0 L 229.3 121.9 L 235.8 121.0 L 242.3 120.5 L 248.9 120.3 L 255.5 120.4 L 262.0 120.8 L 268.6 121.5 L 275.2 122.5 L 281.8 123.9 L 288.2 125.5 L 294.7 127.5 L 301.0 129.8 L 307.3 132.4 L 313.4 135.3 L 319.4 138.5 L 325.3 141.9 L 331.0 145.7 L 336.6 149.8 L 342.0 154.1 L 347.1 158.7 L 352.1 163.5 L 356.9 168.6 L 361.4 173.9 L 365.7 179.5 L 369.7 185.3 L 373.5 191.2 L 377.0 197.4 L 380.2 203.7 L 383.1 210.2 L 385.7 216.9 L 388.0 223.7 L 389.9 230.6 L 391.6 237.6 L 392.9 244.7 L 393.9 251.9 L 394.5 259.2 L 394.8 266.5 L 394.8 273.8 L 394.4 281.1 L 393.6 288.5 L 392.6 295.8 L 391.1 303.0 L 389.3 310.3 L 387.2 317.4 L 384.7 324.5 L 381.9 331.4 L 378.8 338.2 L 375.3 344.9 L 371.5 351.5 L 367.4 357.9 L 362.9 364.1 L 358.2 370.0 L 353.2 375.8 L 347.9 381.4 L 342.3 386.7 L 336.4 391.7" fill="none" stroke="#ffffff" stroke-width="39.9" stroke-linecap="round" stroke-linejoin="round"/></svg>